<?xml version="1.0" encoding="UTF-8"?>
<svg version="1.1" xmlns="http://www.w3.org/2000/svg" width="1280" height="640">
<path d="M0 0 C422.4 0 844.8 0 1280 0 C1280 211.2 1280 422.4 1280 640 C857.6 640 435.2 640 0 640 C0 428.8 0 217.6 0 0 Z " fill="#209C3A" transform="translate(0,0)"/>
<path d="M0 0 C422.4 0 844.8 0 1280 0 C1280 72.6 1280 145.2 1280 220 C857.6 220 435.2 220 0 220 C0 147.4 0 74.8 0 0 Z " fill="#008EB7" transform="translate(0,0)"/>
<path d="M0 0 C422.4 0 844.8 0 1280 0 C1280 67.65 1280 135.3 1280 205 C857.6 205 435.2 205 0 205 C0 137.35 0 69.7 0 0 Z " fill="#F7BD29" transform="translate(0,220)"/>
<path d="M0 0 C422.4 0 844.8 0 1280 0 C1280 5.94 1280 11.88 1280 18 C857.6 18 435.2 18 0 18 C0 12.06 0 6.12 0 0 Z " fill="#DA281F" transform="translate(0,407)"/>
<path d="M0 0 C422.4 0 844.8 0 1280 0 C1280 4.29 1280 8.58 1280 13 C857.6 13 435.2 13 0 13 C0 8.71 0 4.42 0 0 Z " fill="#DA281F" transform="translate(0,220)"/>
<path d="M0 0 C422.4 0 844.8 0 1280 0 C1280 1.65 1280 3.3 1280 5 C857.6 5 435.2 5 0 5 C0 3.35 0 1.7 0 0 Z " fill="#FDFEFD" transform="translate(0,420)"/>
<path d="M0 0 C422.4 0 844.8 0 1280 0 C1280 1.65 1280 3.3 1280 5 C857.6 5 435.2 5 0 5 C0 3.35 0 1.7 0 0 Z " fill="#FDFEFE" transform="translate(0,215)"/>
<path d="M0 0 C0 0.33 0 0.66 0 1 C-1.39798828 1.03867187 -1.39798828 1.03867187 -2.82421875 1.078125 C-17.89774203 1.74873675 -29.2781525 5.26927153 -40.75 15.4375 C-41.4925 16.283125 -42.235 17.12875 -43 18 C-43.47953125 18.53753906 -43.9590625 19.07507813 -44.453125 19.62890625 C-53.8242575 30.96419025 -55.34063487 43.35295187 -54.29101562 57.56787109 C-53.292577 65.9122046 -49.63466403 73.03949452 -44.234375 79.4140625 C-43 81 -43 81 -42 84 C-40.14191131 85.05173668 -40.14191131 85.05173668 -38 86 C-36.71052202 86.95447958 -35.44000044 87.93498947 -34.1875 88.9375 C-23.89781579 96.75461684 -12.39595585 97.38665843 0 98 C-1.91725212 101.83450425 -7.66449341 102.63763246 -11.58251953 103.94506836 C-25.99474177 108.43566979 -39.50861851 106.18407147 -53.0625 99.9375 C-64.1239006 94.11378247 -72.29604019 86.1264255 -78 75 C-78.50660156 74.02160156 -79.01320313 73.04320312 -79.53515625 72.03515625 C-85.01684384 59.43796332 -85.60440026 42.64938908 -80.9375 29.6875 C-80.0245055 27.75892736 -79.04610208 25.85973703 -78 24 C-77.46890625 23.030625 -76.9378125 22.06125 -76.390625 21.0625 C-68.53719581 7.80533512 -56.75387062 -1.10527829 -41.96484375 -5.52734375 C-27.23851057 -9.06986127 -13.42640693 -6.6792984 0 0 Z " fill="#FBFDFD" transform="translate(186,58)"/>
<path d="M0 0 C2.02225194 3.0333779 2.99347524 5.61344489 4.125 9.0625 C4.47820312 10.12597656 4.83140625 11.18945312 5.1953125 12.28515625 C6 15 6 15 6 17 C12.27 17 18.54 17 25 17 C21.92160854 20.07839146 19.28500151 22.33131476 15.75 24.75 C14.85796875 25.36359375 13.9659375 25.9771875 13.046875 26.609375 C12.37140625 27.06828125 11.6959375 27.5271875 11 28 C11.20496094 28.72445312 11.40992188 29.44890625 11.62109375 30.1953125 C12.99054223 35.10960129 14.31532637 39.93341513 15 45 C11.57053707 43.38325319 8.43736948 41.42402323 5.25 39.375 C4.26515625 38.74335937 3.2803125 38.11171875 2.265625 37.4609375 C1.51796875 36.97882813 0.7703125 36.49671875 0 36 C-0.83144531 36.6496875 -1.66289062 37.299375 -2.51953125 37.96875 C-3.61689714 38.81287761 -4.71456944 39.65660698 -5.8125 40.5 C-6.35970703 40.92925781 -6.90691406 41.35851562 -7.47070312 41.80078125 C-11.66015625 45 -11.66015625 45 -15 45 C-14.62746094 43.95199219 -14.25492187 42.90398437 -13.87109375 41.82421875 C-13.39275477 40.44547699 -12.91491617 39.06656157 -12.4375 37.6875 C-12.19064453 36.99720703 -11.94378906 36.30691406 -11.68945312 35.59570312 C-10.17005349 31.34686995 -10.17005349 31.34686995 -11 27 C-13.16095601 25.36421657 -15.2993063 23.85358809 -17.5625 22.375 C-19.72879736 20.94138751 -21.8695366 19.48747236 -24 18 C-24 17.67 -24 17.34 -24 17 C-17.73 17 -11.46 17 -5 17 C-4.34 14.03 -3.68 11.06 -3 8 C-2.11444244 5.2661457 -1.06855657 2.67139143 0 0 Z " fill="#F0F8FA" transform="translate(317,77)"/>
<path d="M0 0 C2.02225194 3.0333779 2.99347524 5.61344489 4.125 9.0625 C4.47820312 10.12597656 4.83140625 11.18945312 5.1953125 12.28515625 C6 15 6 15 6 17 C11.94 17 17.88 17 24 17 C20.82270675 20.17729325 18.21605594 22.74084058 14.6875 25.3125 C13.99011719 25.82425781 13.29273438 26.33601563 12.57421875 26.86328125 C12.05472656 27.23839844 11.53523438 27.61351563 11 28 C11.12117188 28.54527344 11.24234375 29.09054688 11.3671875 29.65234375 C12.578125 35.1015625 13.7890625 40.55078125 15 46 C13.58235006 45.06398754 12.16592432 44.1261208 10.75 43.1875 C9.96109375 42.66542969 9.1721875 42.14335938 8.359375 41.60546875 C6 40 6 40 4.015625 38.23828125 C2.05038487 36.77426628 2.05038487 36.77426628 -0.41796875 37.08984375 C-3.47260249 38.16659059 -5.70298054 39.6488524 -8.3125 41.5625 C-9.63701172 42.52349609 -9.63701172 42.52349609 -10.98828125 43.50390625 C-11.65214844 43.99761719 -12.31601563 44.49132812 -13 45 C-14.27929846 41.16210461 -13.41877666 39.69580199 -12.0625 35.9375 C-10.545608 32.05623753 -10.545608 32.05623753 -10 28 C-12.3028722 26.23466047 -14.60652792 24.57088298 -17 22.9375 C-19.35475351 21.31690226 -21.68321961 19.67552868 -24 18 C-24 17.67 -24 17.34 -24 17 C-17.73 17 -11.46 17 -5 17 C-4.34 14.03 -3.68 11.06 -3 8 C-2.11444244 5.2661457 -1.06855657 2.67139143 0 0 Z " fill="#F1F9FB" transform="translate(266,77)"/>
<path d="M0 0 C0.66 0 1.32 0 2 0 C3.65 5.28 5.3 10.56 7 16 C12.94 16.33 18.88 16.66 25 17 C22.28919443 19.71080557 19.88899318 21.98091007 16.875 24.25 C15.85019531 25.03117187 15.85019531 25.03117187 14.8046875 25.828125 C13 27 13 27 11 27 C11.37253906 28.20398438 11.74507813 29.40796875 12.12890625 30.6484375 C12.60715406 32.22384205 13.08499777 33.79936931 13.5625 35.375 C13.80935547 36.1690625 14.05621094 36.963125 14.31054688 37.78125 C14.53935547 38.54179687 14.76816406 39.30234375 15.00390625 40.0859375 C15.21861572 40.7876709 15.4333252 41.4894043 15.65454102 42.21240234 C16 44 16 44 15 46 C14.33613281 45.44570312 13.67226563 44.89140625 12.98828125 44.3203125 C12.10527344 43.59585938 11.22226562 42.87140625 10.3125 42.125 C9.44238281 41.40570313 8.57226562 40.68640625 7.67578125 39.9453125 C4.13777196 37.2707623 4.13777196 37.2707623 0 36 C-2.56701408 37.53479153 -4.56923999 38.95935099 -6.8125 40.875 C-7.7087207 41.60396484 -7.7087207 41.60396484 -8.62304688 42.34765625 C-10.09530473 43.54901866 -11.54948293 44.77247604 -13 46 C-14 44 -14 44 -13.22265625 41.1015625 C-12.83980469 39.95429688 -12.45695312 38.80703125 -12.0625 37.625 C-10.77504292 33.7582645 -10 31.10518383 -10 27 C-12.14763311 25.24472294 -14.17144876 23.78176258 -16.5 22.3125 C-18.68196044 20.89490616 -20.84521149 19.45921805 -23 18 C-23 17.67 -23 17.34 -23 17 C-17.06 16.67 -11.12 16.34 -5 16 C-3.35 10.72 -1.7 5.44 0 0 Z " fill="#F4FAFB" transform="translate(342,108)"/>
<path d="M0 0 C2 1 2 1 3.0703125 3.58203125 C3.41835938 4.64808594 3.76640625 5.71414062 4.125 6.8125 C4.47820312 7.87082031 4.83140625 8.92914063 5.1953125 10.01953125 C6 13 6 13 6 17 C12.27 17 18.54 17 25 17 C21.92160854 20.07839146 19.28500151 22.33131476 15.75 24.75 C14.85796875 25.36359375 13.9659375 25.9771875 13.046875 26.609375 C12.37140625 27.06828125 11.6959375 27.5271875 11 28 C11.37253906 29.13179687 11.74507813 30.26359375 12.12890625 31.4296875 C12.60715895 32.91133311 13.08500239 34.39311087 13.5625 35.875 C13.9327832 36.99455078 13.9327832 36.99455078 14.31054688 38.13671875 C16.11328125 43.7734375 16.11328125 43.7734375 15 46 C14.11957031 45.25492188 13.23914063 44.50984375 12.33203125 43.7421875 C11.15962936 42.78550756 9.98640902 41.82982999 8.8125 40.875 C8.23435547 40.38128906 7.65621094 39.88757813 7.06054688 39.37890625 C5.14434251 37.77682731 5.14434251 37.77682731 2 36 C-2.20050235 36.70851847 -5.07905606 39.45201968 -8.3125 42.125 C-9.19550781 42.84945312 -10.07851563 43.57390625 -10.98828125 44.3203125 C-11.98408203 45.15175781 -11.98408203 45.15175781 -13 46 C-14.39035371 41.82893888 -12.90230806 38.81793141 -11.5625 34.8125 C-11.31951172 34.06291016 -11.07652344 33.31332031 -10.82617188 32.54101562 C-10.22534944 30.69142499 -9.61370322 28.84535673 -9 27 C-9.55171875 26.74347656 -10.1034375 26.48695313 -10.671875 26.22265625 C-13.35467062 24.81373842 -15.76817968 23.17549991 -18.25 21.4375 C-19.14203125 20.81746094 -20.0340625 20.19742188 -20.953125 19.55859375 C-21.62859375 19.04425781 -22.3040625 18.52992187 -23 18 C-23 17.67 -23 17.34 -23 17 C-17.06 17 -11.12 17 -5 17 C-4.54625 15.30875 -4.0925 13.6175 -3.625 11.875 C-2.53455806 7.86982227 -1.37665135 3.91816154 0 0 Z " fill="#F4FAFB" transform="translate(291,108)"/>
<path d="M0 0 C2.48659621 2.48659621 3.0343111 4.60483946 4.125 7.9375 C4.47820312 8.99839844 4.83140625 10.05929688 5.1953125 11.15234375 C6 14 6 14 6 17 C12.27 17 18.54 17 25 17 C21.74314706 19.60548235 18.48172574 22.19328749 15.1875 24.75 C14.39730469 25.36359375 13.60710937 25.9771875 12.79296875 26.609375 C12.20128906 27.06828125 11.60960937 27.5271875 11 28 C11.30035156 28.97582031 11.60070312 29.95164063 11.91015625 30.95703125 C12.29472445 32.24205183 12.67881414 33.52721569 13.0625 34.8125 C13.26166016 35.45509766 13.46082031 36.09769531 13.66601562 36.75976562 C15.11328125 41.66015625 15.11328125 41.66015625 14 45 C12.78763672 43.99066406 12.78763672 43.99066406 11.55078125 42.9609375 C10.47211594 42.09800525 9.3926462 41.23607786 8.3125 40.375 C7.51682617 39.70597656 7.51682617 39.70597656 6.70507812 39.0234375 C4.93672761 37.57158919 4.93672761 37.57158919 2 36 C-2.00541556 36.7815445 -5.03103801 39.26234737 -8.3125 41.625 C-9.19550781 42.25664062 -10.07851562 42.88828125 -10.98828125 43.5390625 C-11.65214844 44.02117187 -12.31601563 44.50328125 -13 45 C-14.68550367 41.62899267 -12.68863036 38.27985368 -11.5625 34.875 C-11.19801758 33.74384766 -11.19801758 33.74384766 -10.82617188 32.58984375 C-10.22404181 30.72442121 -9.61286537 28.86192317 -9 27 C-9.72574219 26.74347656 -10.45148438 26.48695313 -11.19921875 26.22265625 C-14.13786152 24.93981777 -16.3071423 23.42765977 -18.8125 21.4375 C-19.60269531 20.81746094 -20.39289063 20.19742188 -21.20703125 19.55859375 C-22.09455078 18.78708984 -22.09455078 18.78708984 -23 18 C-23 17.67 -23 17.34 -23 17 C-17.06 17 -11.12 17 -5 17 C-4.54625 15.30875 -4.0925 13.6175 -3.625 11.875 C-2.53455806 7.86982227 -1.37665135 3.91816154 0 0 Z " fill="#F5FAFC" transform="translate(240,108)"/>
</svg>
